<?xml version="1.0" standalone="no"?>
<!DOCTYPE svg PUBLIC "-//W3C//DTD SVG 20010904//EN"
 "http://www.w3.org/TR/2001/REC-SVG-20010904/DTD/svg10.dtd">
<svg version="1.0" xmlns="http://www.w3.org/2000/svg"
 width="682.000000pt" height="682.000000pt" viewBox="0 0 682.000000 682.000000"
 preserveAspectRatio="xMidYMid meet">
<metadata>
Created by potrace 1.14, written by Peter Selinger 2001-2017
</metadata>
<g transform="translate(0.000000,682.000000) scale(0.100000,-0.100000)"
fill="#000000" stroke="none">
<path d="M3389 6775 c-8 -7 -36 -25 -64 -40 -27 -14 -63 -35 -80 -46 -16 -10
-37 -22 -45 -26 -21 -11 -138 -79 -185 -109 -22 -14 -48 -27 -57 -31 -10 -3
-18 -10 -18 -15 0 -5 -4 -6 -10 -3 -5 3 -10 1 -10 -4 0 -6 -6 -11 -14 -11 -7
0 -19 -7 -26 -15 -7 -9 -15 -13 -18 -10 -3 3 -12 -1 -21 -8 -25 -22 -259 -157
-270 -157 -6 0 -11 -4 -11 -10 0 -5 -4 -10 -9 -10 -5 0 -88 -47 -186 -105 -97
-58 -178 -105 -180 -105 -1 0 -55 -31 -119 -70 -65 -38 -119 -70 -120 -70 -2
0 -45 -25 -95 -55 -51 -30 -96 -55 -101 -55 -6 0 -10 -4 -10 -10 0 -5 -4 -10
-10 -10 -5 0 -50 -25 -100 -55 -50 -30 -93 -55 -96 -55 -4 0 -26 -13 -51 -30
-24 -16 -46 -30 -49 -30 -2 0 -37 -20 -77 -44 -127 -77 -162 -97 -179 -103
-10 -3 -18 -9 -18 -14 0 -5 -5 -9 -11 -9 -7 0 -40 -18 -75 -40 -35 -22 -68
-40 -74 -40 -5 0 -10 -5 -10 -11 0 -5 -4 -8 -9 -4 -5 3 -12 1 -15 -4 -4 -5
-37 -26 -74 -47 -37 -20 -82 -47 -101 -60 l-33 -22 38 -24 c22 -14 55 -33 74
-44 19 -10 37 -22 40 -25 3 -3 47 -30 99 -60 52 -30 110 -64 130 -76 20 -12
52 -30 71 -40 19 -9 40 -21 45 -26 6 -4 116 -71 245 -147 129 -76 240 -144
247 -149 7 -6 15 -11 18 -11 4 0 126 -71 273 -159 147 -87 292 -172 322 -189
l55 -30 415 250 c228 138 423 252 433 255 9 3 17 9 17 14 0 5 7 9 15 9 8 0 15
5 15 10 0 6 4 10 10 10 5 0 32 14 59 31 l50 30 43 -24 c24 -13 59 -34 78 -46
19 -11 54 -31 78 -43 23 -12 42 -26 42 -30 0 -4 4 -8 10 -8 9 0 350 -200 497
-291 34 -22 64 -39 67 -39 2 0 51 -29 110 -65 l106 -65 47 30 c27 17 56 33 66
36 9 4 17 10 17 15 0 5 4 9 10 9 8 0 71 38 210 125 55 35 571 351 607 371 18
11 74 45 125 77 51 32 102 63 113 70 11 7 42 26 70 43 162 100 287 176 311
188 l27 15 -56 35 c-30 20 -71 43 -91 53 -20 9 -36 20 -36 25 0 4 -5 8 -10 8
-6 0 -40 18 -76 40 -36 22 -68 40 -70 40 -2 0 -34 19 -71 42 -38 22 -93 55
-123 71 -30 16 -61 35 -69 41 -15 12 -42 28 -86 50 -16 9 -43 24 -60 35 -34
21 -192 114 -245 143 -19 11 -55 32 -80 47 -25 16 -90 54 -145 86 -55 32 -116
67 -135 79 -19 13 -42 26 -50 30 -8 4 -24 12 -35 19 -11 7 -86 50 -165 96 -80
46 -152 90 -161 98 -9 7 -19 10 -22 6 -4 -3 -7 -1 -7 5 0 7 -4 12 -9 12 -6 0
-62 32 -127 70 -64 39 -121 70 -125 70 -5 0 -9 5 -9 10 0 6 -5 10 -10 10 -6 0
-57 27 -113 61 -56 33 -109 64 -117 69 -8 5 -40 23 -70 41 -30 17 -68 40 -85
49 -16 10 -69 40 -116 68 -72 41 -89 48 -100 37z"/>
<path d="M447 4653 c-4 -6 -9 -622 -7 -758 0 -11 0 -42 0 -70 0 -27 0 -72 1
-100 0 -27 0 -214 -1 -415 0 -201 0 -372 0 -380 0 -8 0 -37 0 -65 0 -27 0 -72
1 -100 0 -27 0 -212 -1 -410 0 -198 0 -369 0 -380 0 -11 0 -42 0 -70 0 -72 1
-139 3 -225 2 -67 4 -76 25 -85 12 -5 22 -13 22 -17 0 -5 7 -8 15 -8 8 0 15
-3 15 -7 0 -5 10 -13 23 -19 33 -17 78 -42 112 -64 17 -11 46 -29 65 -40 19
-11 53 -32 75 -45 22 -14 51 -30 65 -36 13 -6 27 -14 30 -18 4 -7 43 -31 122
-76 91 -52 417 -251 431 -263 9 -8 17 -11 17 -7 0 4 8 1 18 -7 15 -13 161
-103 255 -158 56 -32 201 -119 217 -130 29 -20 595 -360 635 -381 22 -12 43
-27 47 -33 4 -6 8 -7 8 -3 0 4 15 -2 33 -15 34 -25 41 -29 132 -83 33 -19 78
-46 100 -60 22 -14 48 -28 58 -31 9 -4 17 -10 17 -15 0 -5 5 -9 11 -9 6 0 23
-8 37 -18 15 -10 34 -21 44 -25 15 -5 16 64 15 960 l-2 967 -86 51 c-47 29
-105 63 -130 77 -24 14 -96 56 -159 93 -124 73 -206 122 -285 167 -27 16 -63
37 -80 47 -31 19 -53 32 -199 116 -77 45 -86 53 -87 80 0 17 -1 278 -1 581
l-1 550 -41 25 c-22 13 -62 36 -88 50 -26 14 -53 31 -60 36 -7 6 -33 22 -58
35 -25 14 -135 78 -245 143 -110 65 -254 149 -320 188 -66 38 -142 84 -170
101 -27 17 -52 31 -55 31 -3 1 -24 13 -47 28 -24 15 -46 27 -49 27 -4 0 -22
11 -40 25 -18 14 -36 25 -40 25 -4 0 -35 18 -70 40 -35 22 -68 40 -74 40 -5 0
-10 5 -10 12 0 6 -3 8 -7 5 -3 -4 -13 -1 -22 6 -9 7 -50 33 -91 57 -41 24 -85
50 -97 57 -11 8 -23 10 -26 6z"/>
<path d="M6299 4622 c-121 -72 -164 -97 -194 -112 -16 -8 -32 -17 -35 -21 -3
-3 -20 -14 -39 -24 -19 -9 -109 -61 -200 -114 -91 -53 -173 -100 -181 -104 -8
-4 -28 -16 -45 -27 -16 -11 -37 -23 -45 -27 -8 -4 -59 -33 -113 -65 -54 -32
-100 -58 -103 -58 -2 0 -28 -16 -58 -35 -30 -19 -58 -35 -62 -35 -5 0 -24 -11
-43 -23 -20 -13 -76 -47 -126 -76 -49 -28 -97 -56 -105 -61 -36 -22 -166 -96
-180 -101 -9 -4 -20 -13 -26 -20 -8 -10 -11 -191 -10 -574 1 -630 9 -569 -80
-621 -27 -16 -50 -32 -52 -36 -2 -4 -8 -8 -13 -8 -9 0 -85 -45 -194 -115 -27
-18 -68 -43 -91 -56 -71 -42 -559 -342 -568 -350 -10 -9 -13 -1925 -3 -1935 3
-4 18 2 34 13 15 10 40 25 56 33 15 7 27 17 27 22 0 4 5 8 10 8 6 0 85 45 176
100 92 55 170 100 175 100 5 0 9 5 9 10 0 6 5 10 11 10 6 0 31 14 56 30 24 17
46 30 48 30 2 0 86 49 186 110 100 60 186 110 190 110 5 0 9 5 9 10 0 6 4 10
9 10 5 0 130 73 278 162 147 88 277 166 288 172 84 47 421 253 427 261 4 5 8
6 8 2 0 -4 19 5 43 21 23 16 67 43 97 61 30 17 62 36 70 41 22 14 150 90 185
110 89 52 222 134 235 145 13 12 15 195 15 1534 -1 836 -3 1522 -6 1525 -3 3
-34 -11 -70 -32z"/>
</g>
</svg>
